PathFileType	4	(X/Y/Z)	 New Session 107.trc
DataRate	CameraRate	NumFrames	NumMarkers	Units	OrigDataRate	OrigDataStartFrame	OrigNumFrames
100	100	19	14	m	100	569	909
Frame#	Time	C7			T8			IJ			PX			AA			AC			AI			TS			SC			GH			LE			ME			US			RS			
		X1	Y1	Z1	X2	Y2	Z2	X3	Y3	Z3	X4	Y4	Z4	X5	Y5	Z5	X6	Y6	Z6	X7	Y7	Z7	X8	Y8	Z8	X9	Y9	Z9	X10	Y10	Z10	X11	Y11	Z11	X12	Y12	Z12	X13	Y13	Z13	X14	Y14	Z14	
569	5.6900	0.004807	0.108760	0.164053	0.009520	-0.099739	0.245704	-0.013096	-0.001877	0.002037	-0.002482	-0.148720	-0.057067	0.207540	0.021920	0.141145	0.149120	0.054605	0.074019	0.090441	0.039449	0.207074	0.094386	-0.076629	0.243670	0.011675	0.007402	0.006440	0.211404	0.035131	0.098922	0.334499	-0.182313	-0.041114	0.322455	-0.255117	0.024489	0.103794	-0.310070	-0.129119	0.085724	-0.234698	-0.111354	
570	5.7000	0.004906	0.108748	0.164065	0.009655	-0.099740	0.245713	-0.013024	-0.001848	0.002032	-0.002382	-0.148681	-0.057092	0.207729	0.021977	0.140874	0.149147	0.054606	0.073898	0.090604	0.039440	0.207029	0.094557	-0.076634	0.243584	0.011736	0.007413	0.006418	0.211463	0.035199	0.098615	0.334187	-0.182086	-0.042036	0.322721	-0.254824	0.023723	0.102943	-0.309949	-0.128064	0.084994	-0.234493	-0.110380	
571	5.7100	0.004998	0.108735	0.164078	0.009782	-0.099735	0.245720	-0.012967	-0.001821	0.002033	-0.002290	-0.148635	-0.057120	0.207900	0.022039	0.140635	0.149170	0.054609	0.073796	0.090749	0.039432	0.206994	0.094697	-0.076649	0.243499	0.011802	0.007417	0.006396	0.211503	0.035272	0.098340	0.333873	-0.181828	-0.042904	0.322990	-0.254505	0.022949	0.102230	-0.309839	-0.127129	0.084335	-0.234349	-0.109438	
572	5.7200	0.005082	0.108720	0.164088	0.009897	-0.099729	0.245724	-0.012903	-0.001790	0.002037	-0.002209	-0.148584	-0.057150	0.208057	0.022104	0.140433	0.149200	0.054616	0.073710	0.090888	0.039411	0.206962	0.094812	-0.076670	0.243416	0.011883	0.007425	0.006377	0.211525	0.035338	0.098100	0.333566	-0.181536	-0.043717	0.323260	-0.254171	0.022181	0.101655	-0.309729	-0.126374	0.083762	-0.234289	-0.108518	
573	5.7300	0.005161	0.108706	0.164093	0.009999	-0.099725	0.245727	-0.012816	-0.001754	0.002041	-0.002137	-0.148533	-0.057180	0.208206	0.022172	0.140263	0.149246	0.054632	0.073632	0.091032	0.039388	0.206936	0.094913	-0.076695	0.243333	0.011975	0.007443	0.006359	0.211537	0.035394	0.097892	0.333270	-0.181210	-0.044481	0.323532	-0.253829	0.021442	0.101205	-0.309632	-0.125821	0.083295	-0.234297	-0.107668	
574	5.7400	0.005235	0.108693	0.164093	0.010090	-0.099725	0.245728	-0.012700	-0.001714	0.002039	-0.002076	-0.148484	-0.057211	0.208343	0.022239	0.140115	0.149303	0.054663	0.073553	0.091167	0.039366	0.206909	0.095011	-0.076720	0.243245	0.012070	0.007469	0.006341	0.211555	0.035447	0.097713	0.333012	-0.180854	-0.045196	0.323808	-0.253490	0.020748	0.100873	-0.309557	-0.125448	0.082951	-0.234328	-0.106983	
575	5.7500	0.005306	0.108680	0.164092	0.010175	-0.099726	0.245727	-0.012567	-0.001676	0.002029	-0.002028	-0.148439	-0.057243	0.208468	0.022302	0.139978	0.149367	0.054714	0.073470	0.091278	0.039343	0.206880	0.095119	-0.076739	0.243152	0.012156	0.007498	0.006326	0.211591	0.035505	0.097561	0.332836	-0.180478	-0.045858	0.324090	-0.253163	0.020109	0.100655	-0.309512	-0.125220	0.082729	-0.234344	-0.106536	
576	5.7600	0.005375	0.108666	0.164091	0.010259	-0.099727	0.245725	-0.012437	-0.001646	0.002014	-0.001989	-0.148400	-0.057276	0.208581	0.022358	0.139848	0.149430	0.054776	0.073385	0.091381	0.039319	0.206837	0.095238	-0.076746	0.243060	0.012227	0.007520	0.006315	0.211644	0.035570	0.097428	0.332772	-0.180097	-0.046460	0.324378	-0.252854	0.019525	0.100554	-0.309501	-0.125101	0.082614	-0.234334	-0.106345	
577	5.7700	0.005442	0.108650	0.164092	0.010347	-0.099728	0.245720	-0.012328	-0.001631	0.001999	-0.001959	-0.148368	-0.057313	0.208683	0.022405	0.139727	0.149491	0.054837	0.073304	0.091490	0.039297	0.206786	0.095365	-0.076743	0.242967	0.012287	0.007530	0.006302	0.211704	0.035642	0.097306	0.332817	-0.179736	-0.047004	0.324667	-0.252564	0.018987	0.100553	-0.309516	-0.125065	0.082585	-0.234308	-0.106382	
578	5.7800	0.005504	0.108633	0.164091	0.010441	-0.099731	0.245711	-0.012243	-0.001630	0.001982	-0.001934	-0.148341	-0.057356	0.208778	0.022443	0.139611	0.149547	0.054887	0.073230	0.091585	0.039268	0.206741	0.095497	-0.076739	0.242872	0.012338	0.007534	0.006280	0.211767	0.035721	0.097190	0.332943	-0.179405	-0.047500	0.324949	-0.252291	0.018483	0.100627	-0.309545	-0.125098	0.082626	-0.234278	-0.106598	
579	5.7900	0.005559	0.108619	0.164085	0.010540	-0.099737	0.245695	-0.012175	-0.001636	0.001959	-0.001914	-0.148316	-0.057407	0.208870	0.022476	0.139496	0.149600	0.054931	0.073158	0.091664	0.039232	0.206697	0.095632	-0.076742	0.242770	0.012380	0.007540	0.006245	0.211831	0.035806	0.097075	0.333118	-0.179102	-0.047957	0.325212	-0.252024	0.017996	0.100755	-0.309582	-0.125199	0.082726	-0.234246	-0.106941	
580	5.8000	0.005608	0.108611	0.164071	0.010643	-0.099743	0.245672	-0.012119	-0.001635	0.001925	-0.001895	-0.148291	-0.057466	0.208962	0.022515	0.139377	0.149652	0.054978	0.073083	0.091751	0.039189	0.206640	0.095774	-0.076756	0.242657	0.012414	0.007554	0.006202	0.211891	0.035893	0.096960	0.333310	-0.178815	-0.048380	0.325451	-0.251754	0.017516	0.100926	-0.309609	-0.125367	0.082876	-0.234206	-0.107364	
581	5.8100	0.005660	0.108609	0.164047	0.010750	-0.099745	0.245643	-0.012073	-0.001621	0.001882	-0.001877	-0.148262	-0.057535	0.209055	0.022564	0.139253	0.149705	0.055030	0.072998	0.091855	0.039153	0.206567	0.095923	-0.076778	0.242536	0.012447	0.007579	0.006156	0.211954	0.035981	0.096845	0.333494	-0.178534	-0.048771	0.325665	-0.251473	0.017040	0.101137	-0.309606	-0.125590	0.083064	-0.234155	-0.107816	
582	5.8200	0.005721	0.108612	0.164009	0.010859	-0.099740	0.245608	-0.012038	-0.001599	0.001838	-0.001858	-0.148229	-0.057611	0.209150	0.022622	0.139127	0.149758	0.055086	0.072899	0.091967	0.039136	0.206490	0.096073	-0.076800	0.242415	0.012481	0.007609	0.006109	0.212025	0.036069	0.096734	0.333657	-0.178250	-0.049133	0.325867	-0.251181	0.016569	0.101383	-0.309564	-0.125856	0.083267	-0.234099	-0.108249	
583	5.8300	0.005794	0.108614	0.163952	0.010970	-0.099728	0.245567	-0.012019	-0.001580	0.001799	-0.001839	-0.148190	-0.057695	0.209246	0.022680	0.138999	0.149813	0.055140	0.072793	0.092080	0.039134	0.206420	0.096220	-0.076813	0.242300	0.012518	0.007638	0.006060	0.212111	0.036155	0.096630	0.333792	-0.177954	-0.049473	0.326076	-0.250883	0.016107	0.101641	-0.309491	-0.126142	0.083459	-0.234059	-0.108621	
584	5.8400	0.005880	0.108612	0.163880	0.011080	-0.099715	0.245518	-0.012013	-0.001574	0.001768	-0.001818	-0.148148	-0.057785	0.209343	0.022728	0.138875	0.149872	0.055189	0.072685	0.092194	0.039131	0.206348	0.096363	-0.076816	0.242192	0.012558	0.007663	0.006002	0.212210	0.036232	0.096533	0.333898	-0.177640	-0.049807	0.326310	-0.250584	0.015655	0.101879	-0.309410	-0.126428	0.083614	-0.234051	-0.108899	
585	5.8500	0.005975	0.108605	0.163797	0.011189	-0.099707	0.245459	-0.012010	-0.001585	0.001738	-0.001795	-0.148105	-0.057880	0.209439	0.022762	0.138760	0.149939	0.055231	0.072589	0.092312	0.039111	0.206263	0.096503	-0.076816	0.242079	0.012606	0.007681	0.005933	0.212316	0.036298	0.096443	0.333979	-0.177307	-0.050151	0.326580	-0.250286	0.015215	0.102076	-0.309349	-0.126686	0.083729	-0.234063	-0.109084	
586	5.8600	0.006072	0.108596	0.163715	0.011299	-0.099706	0.245392	-0.011993	-0.001601	0.001697	-0.001770	-0.148062	-0.057980	0.209534	0.022784	0.138659	0.150015	0.055267	0.072510	0.092428	0.039080	0.206167	0.096645	-0.076824	0.241942	0.012660	0.007690	0.005855	0.212421	0.036359	0.096362	0.334046	-0.176962	-0.050515	0.326885	-0.249990	0.014786	0.102235	-0.309329	-0.126893	0.083833	-0.234056	-0.109210	
587	5.8700	0.006162	0.108590	0.163644	0.011409	-0.099710	0.245319	-0.011949	-0.001610	0.001636	-0.001743	-0.148021	-0.058082	0.209626	0.022802	0.138569	0.150091	0.055304	0.072448	0.092528	0.039037	0.206076	0.096787	-0.076849	0.241767	0.012714	0.007694	0.005775	0.212518	0.036421	0.096289	0.334115	-0.176615	-0.050902	0.327217	-0.249693	0.014367	0.102369	-0.309372	-0.127024	0.083966	-0.234008	-0.109304	
